<?xml version="1.0" encoding="utf-8"?>
<!-- Generator: Adobe Illustrator 27.4.1, SVG Export Plug-In . SVG Version: 6.00 Build 0)  -->
<svg version="1.1" id="Layer_1" xmlns="http://www.w3.org/2000/svg" xmlns:xlink="http://www.w3.org/1999/xlink" x="0px" y="0px"
	 viewBox="0 0 636 283" style="enable-background:new 0 0 636 283;" xml:space="preserve">
<style type="text/css">
	.st0{display:none;fill:#ffffff;}
	.st1{display:none;fill:#ffffff;}
	.st2{fill-rule:evenodd;clip-rule:evenodd;fill:#ffffff;}
	.st3{fill:#ffffff;}
</style>
<path class="st0" d="M465,83.8c21.8,0,25.7-21.8,25.7-30.8v61C490.7,104.7,487.8,83.8,465,83.8z"/>
<path class="st0" d="M516.4,83.8c-21.8,0-25.7-21.8-25.7-30.8v61C490.7,104.7,493.7,83.8,516.4,83.8z"/>
<path class="st1" d="M465,82.8c21.8,0,25.7-21.8,25.7-30.8v61C490.7,103.7,487.8,82.8,465,82.8z"/>
<path class="st1" d="M516.4,82.8c-21.8,0-25.7-21.8-25.7-30.8v61C490.7,103.7,493.7,82.8,516.4,82.8z"/>
<path class="st0" d="M465,81.8c21.8,0,25.7-21.8,25.7-30.8v61C490.7,102.7,487.8,81.8,465,81.8z"/>
<path class="st0" d="M516.4,81.8c-21.8,0-25.7-21.8-25.7-30.8v61C490.7,102.7,493.7,81.8,516.4,81.8z"/>
<g>
	<path class="st2" d="M59.5,56.5h149.2v169.4H59.5V56.5z M69.6,66.6v149h128.9v-149H69.6z"/>
	<path class="st2" d="M85.2,80.4H183v12.1l-86,99.2h86v10.2H85.2v-12.1l86-99.2h-86V80.4z"/>
	<path class="st2" d="M183.1,128.5v51.7h-50.8v-10.2H173v-41.6H183.1z"/>
	<path class="st2" d="M85,102.1h50.8v10.2H95.2v41.5H85V102.1z"/>
	<path class="st3" d="M284.5,155H316v14h-50.1v-11.7l30.8-48.5h-30.1v-14h48.8v11.6L284.5,155z M359.1,116h13.7v53h-13.7v-5.9
		c-3.3,4.9-8.6,7.4-15.8,7.4c-5.8,0-10.6-1.9-14.4-5.8c-3.7-3.9-5.6-9.3-5.6-16.1V116h13.7v30.8c0,3.5,1,6.3,2.9,8.2
		c1.9,1.8,4.5,2.8,7.6,2.8c3.5,0,6.4-1.1,8.5-3.3c2.1-2.2,3.2-5.5,3.2-9.9V116z M460.7,169l-4.5-13.4h-29.6l-4.5,13.4h-15.8l26-74.2
		h18.1l26.1,74.2H460.7z M431.3,142h20.4l-10.2-30.3L431.3,142z M483.4,169v-53h13.7v53H483.4z"/>
	<path class="st3" d="M516.5,79.8c-16.2,0-23.3,16.4-25.7,34.2c-2.5-17.8-9.5-34.2-25.8-34.2c24.3-2.9,23.4-20.9,25.8-28.8
		C493.1,58.9,492.2,76.9,516.5,79.8z"/>
</g>
</svg>
